<svg width="16" height="16" viewBox="0 0 16 16" fill="none" xmlns="http://www.w3.org/2000/svg">
<path d="M3.76164 2.50688H8.4726V5.33502H3.76164V2.50688Z" fill="white"/>
<path d="M5.64812 9.57529L4.92971 10.8476L6.58562 11.411V12.0712L7.30403 10.7989L5.64812 10.2355V9.57529Z" fill="white"/>
<path d="M13.1777 14.1172C13.9553 14.1172 14.5879 13.4846 14.5879 12.707V7.46819C15.399 7.25937 16 6.52181 16 5.64644V3.76559H15.5293V2.35153H14.5918V3.76559H13.6465V2.35153H12.709V3.76559H12.2383V5.64644C12.2383 6.52178 12.8393 7.25937 13.6504 7.46819V12.707C13.6504 12.9677 13.4384 13.1797 13.1777 13.1797H10.9708V0H1.26353V15.0625H0V16H16V15.0625H10.9708V14.1172H13.1777ZM2.82416 7.53125H3.76166V8.46875H2.82416V7.53125ZM6.47059 14.1832H5.64844V12.0833L3.94406 11.5034L3.74831 11.0346L5.76378 7.46522H6.58594V9.56512L8.29031 10.145L8.48606 10.6138L6.47059 14.1832ZM9.41015 6.27344H2.82422V1.57031H9.41015V6.27344Z" fill="white"/>
</svg>
